<mxfile host="app.diagrams.net" modified="2025-01-08T18:06:04.855Z" agent="Mozilla/5.0 (X11; Ubuntu; Linux x86_64; rv:133.0) Gecko/20100101 Firefox/133.0" version="21.7.2" etag="meVL5b45NntE9xFPEPe4" type="github">
  <diagram name="Page-1" id="bAiQwWMcFPOpZk_UHZ-i">
    <mxGraphModel>
      <root>
        <mxCell id="0" />
        <mxCell id="1" parent="0" />
      </root>
    </mxGraphModel>
  </diagram>
</mxfile>
